
** Stomp.the.Yard.2.Homecoming.2010.DVDRiP.XViD.OPTIONAL_MULTI_SUB-Zen_Bud **

Format                           : AVI
File size                        : 701 MiB
Duration                         : 1h 24mn
Overall bit rate                 : 1 166 Kbps
Writing application              : VirtualDubMod 1.5.4.1 (build 2178/release)
Writing library                  : VirtualDubMod build 2178/release

Video

Format                           : MPEG-4 Visual
Codec ID/Hint                    : XviD
Duration                         : 1h 24mn
Bit rate                         : 1 030 Kbps
Width                            : 608 pixels
Height                           : 352 pixels
Display aspect ratio             : 16:9
Stream size                      : 620 MiB (88%)
Writing library                  : XviD 1.2.1 (UTC 2008-12-04)

Audio

Format                           : MPEG Audio
Codec ID/Hint                    : MP3
Duration                         : 1h 24mn
Bit rate                         : 128 Kbps
Channel(s)                       : 2 channels
Sampling rate                    : 48.0 KHz
Stream size                      : 77.0 MiB (11%)
Interleave, duration             : 80 ms (2.00 video frames)
Interleave, preload duration     : 504 ms
Writing library                  : LAME3.98r
Language                         : English

Text #1
Language                         : English

Text #2
Language                         : French

Text #3
Language                         : Italian

Text #4
Language                         : Spanish

Text #5
Language                         : Arabic

Text #6
Language                         : Danish

Text #7
Language                         : Dutch

Text #8
Language                         : Finnish

Text #9
Language                         : Hindi

Text #10
Language                         : Norwegian

Text #11
Language                         : Portuguese

Text #12
Language                         : Swedish